<?xml version="1.0" encoding="UTF-8" standalone="no"?>
<!-- Created with Inkscape (http://www.inkscape.org/) -->

<svg
   xmlns:dc="http://purl.org/dc/elements/1.1/"
   xmlns:cc="http://creativecommons.org/ns#"
   xmlns:rdf="http://www.w3.org/1999/02/22-rdf-syntax-ns#"
   xmlns:svg="http://www.w3.org/2000/svg"
   xmlns="http://www.w3.org/2000/svg"
   xmlns:sodipodi="http://sodipodi.sourceforge.net/DTD/sodipodi-0.dtd"
   xmlns:inkscape="http://www.inkscape.org/namespaces/inkscape"
   width="4.5155559mm"
   height="4.5155473mm"
   viewBox="0 0 16.000001 15.999971"
   id="svg4174"
   version="1.1"
   inkscape:version="0.91 r13725"
   sodipodi:docname="favicon.svg">
  <defs
     id="defs4176" />
  <sodipodi:namedview
     id="base"
     pagecolor="#ffffff"
     bordercolor="#666666"
     borderopacity="1.0"
     inkscape:pageopacity="0.0"
     inkscape:pageshadow="2"
     inkscape:zoom="0.35"
     inkscape:cx="-1528.4285"
     inkscape:cy="396.57143"
     inkscape:document-units="px"
     inkscape:current-layer="layer1"
     showgrid="false"
     fit-margin-top="0"
     fit-margin-left="0"
     fit-margin-right="0"
     fit-margin-bottom="0"
     inkscape:window-width="1920"
     inkscape:window-height="1043"
     inkscape:window-x="3840"
     inkscape:window-y="0"
     inkscape:window-maximized="1" />
  <metadata
     id="metadata4179">
    <rdf:RDF>
      <cc:Work
         rdf:about="">
        <dc:format>image/svg+xml</dc:format>
        <dc:type
           rdf:resource="http://purl.org/dc/dcmitype/StillImage" />
        <dc:title></dc:title>
      </cc:Work>
    </rdf:RDF>
  </metadata>
  <g
     inkscape:label="Layer 1"
     inkscape:groupmode="layer"
     id="layer1"
     transform="translate(-1337.7143,-935.79081)">
    <g
       id="g4315"
       transform="translate(-2092.3562,1497.0933)"
       inkscape:export-xdpi="90"
       inkscape:export-ydpi="90">
      <g
         transform="matrix(1.3097902,0,0,1.3097902,2080.5189,243.79598)"
         id="g4270">
        <path
           style="opacity:1;fill:#04ae19;fill-opacity:1;stroke:none;stroke-width:4.40485716;stroke-linecap:round;stroke-linejoin:round;stroke-miterlimit:4;stroke-dasharray:none;stroke-dashoffset:0;stroke-opacity:1"
           d="m 1040.6908,-611.24505 c -1.0304,0.87534 -2.4836,1.21324 -3.5139,1.08425 0.083,-0.67002 0.6247,-2.34754 1.6833,-3.23917 1.0344,-0.87123 2.8513,-1.42833 3.6096,-1.2413 0.194,1.05333 -0.7485,2.52087 -1.779,3.39622 z"
           id="path4522"
           inkscape:connector-curvature="0"
           sodipodi:nodetypes="scscs" />
        <g
           style="fill:#04ae19;fill-opacity:1;stroke:none"
           id="g4524"
           transform="matrix(0.09002426,0,0,0.09002426,949.17507,-770.49881)">
          <path
             style="opacity:1;fill:#04ae19;fill-opacity:1;stroke:none;stroke-width:4.40485716;stroke-linecap:round;stroke-linejoin:round;stroke-miterlimit:4;stroke-dasharray:none;stroke-dashoffset:0;stroke-opacity:1"
             d="m 959.85401,1770.4306 c 4.5637,6.2171 12.18287,10.0092 18.07028,10.6524 0.42358,-3.8278 -0.36983,-13.8518 -5.06864,-20.1965 -4.59133,-6.1993 -13.93929,-11.6878 -18.39418,-11.6502 -2.46584,5.5898 0.82883,14.9773 5.39254,21.1943 z"
             id="path4526"
             inkscape:connector-curvature="0"
             sodipodi:nodetypes="scscs" />
        </g>
      </g>
      <g
         transform="matrix(1.012857,0,0,1.012857,-44.100252,5.4622121)"
         id="g4311">
        <path
           style="color:#000000;font-style:normal;font-variant:normal;font-weight:normal;font-stretch:normal;font-size:medium;line-height:normal;font-family:sans-serif;text-indent:0;text-align:start;text-decoration:none;text-decoration-line:none;text-decoration-style:solid;text-decoration-color:#000000;letter-spacing:normal;word-spacing:normal;text-transform:none;direction:ltr;block-progression:tb;writing-mode:lr-tb;baseline-shift:baseline;text-anchor:start;white-space:normal;clip-rule:nonzero;display:inline;overflow:visible;visibility:visible;opacity:1;isolation:auto;mix-blend-mode:normal;color-interpolation:sRGB;color-interpolation-filters:linearRGB;solid-color:#000000;solid-opacity:1;fill:#2374e5;fill-opacity:1;fill-rule:nonzero;stroke:none;stroke-width:2;stroke-linecap:round;stroke-linejoin:round;stroke-miterlimit:4;stroke-dasharray:none;stroke-dashoffset:0;stroke-opacity:1;color-rendering:auto;image-rendering:auto;shape-rendering:auto;text-rendering:auto;enable-background:accumulate"
           d="m 3437.9688,-553.07031 c -4.3504,0 -7.8985,3.54812 -7.8985,7.89843 0,0.46653 0.049,0.92055 0.127,1.36524 l 2.0371,0 c -0.1034,-0.43885 -0.1641,-0.89379 -0.1641,-1.36524 0,-3.26944 2.629,-5.89843 5.8985,-5.89843 3.2694,0 5.8984,2.629 5.8984,5.89843 0,0.47145 -0.061,0.92639 -0.1641,1.36524 l 2.0371,0 c 0.078,-0.44469 0.127,-0.89871 0.127,-1.36524 0,-4.35032 -3.5481,-7.89843 -7.8984,-7.89843 z"
           id="path4297"
           inkscape:connector-curvature="0" />
        <path
           style="opacity:1;fill:#ff9507;fill-opacity:1;stroke:none;stroke-width:2;stroke-linecap:round;stroke-linejoin:round;stroke-miterlimit:4;stroke-dasharray:none;stroke-dashoffset:0;stroke-opacity:1"
           d="m 3437.9688,-549.99805 a 4.8251514,4.8251514 0 0 0 -4.8243,4.82617 4.8251514,4.8251514 0 0 0 0.211,1.39844 l 9.2304,0 a 4.8251514,4.8251514 0 0 0 0.209,-1.39844 4.8251514,4.8251514 0 0 0 -4.8261,-4.82617 z"
           id="path4299"
           inkscape:connector-curvature="0" />
      </g>
    </g>
  </g>
</svg>
